# xmcd
#
# Track frame offsets: 
#        150
#        15596
#        29581
#        41507
#        77583
#        91020
#        100733
#        114076
#        129391
#        142178
#        156428
#        168010
#        183824
#        199877
#        215288
#
# Disc length: 3050 seconds
#
# Revision: 0
# Processed by: cddbd v1.5.2PL0 Copyright (c) Steve Scherf et al.
# Submitted via: ExactAudioCopyFreeDBPlugin 1.0
#
DISCID=b70be80f
DTITLE=Various Artist - Solid Soul 3
DYEAR=2000
DGENRE=Soul
TTITLE0=Joe Tex - Buyin A Book
TTITLE1=Joe Wilson - When A Man Cries
TTITLE2=Aaron Neville - Tell It Like It Is
TTITLE3=Charles Brimmer - God Blessed Our Love
TTITLE4=Tony Drake - Let's Play House
TTITLE5=Stanley Mitchell - Quit Twistin' My Arm
TTITLE6=Donnie Elbert - Can't Get Over Losing You
TTITLE7=Chuck Jackson - Any Day Now (My Wild Beautiful Bird)
TTITLE8=Chris Bartley - Tomorrow Keeps Shining
TTITLE9=Fred Hughes - Send My Baby Back
TTITLE10=Tommy Hunt - Human
TTITLE11=Joe Tex - Takin' A Change
TTITLE12=Lloyd Price - Mr. and Mrs. Untrue
TTITLE13=Bennie Gordon - Crying Man
TTITLE14=Roscoe Shelton - Easy Going Fellow Baby
EXTD=
EXTT0=
EXTT1=
EXTT2=
EXTT3=
EXTT4=
EXTT5=
EXTT6=
EXTT7=
EXTT8=
EXTT9=
EXTT10=
EXTT11=
EXTT12=
EXTT13=
EXTT14=
PLAYORDER=
